<svg width="20" height="20" viewBox="0 0 48 48" xmlns="http://www.w3.org/2000/svg">
  <path fill="#EA4335" d="M24 9.5c3.54 0 6.72 1.22 9.22 3.22l6.82-6.82C35.9 2.2 30.3 0 24 0 14.7 0 6.7 5.4 2.8 13.2l7.96 6.18C12.5 13.1 17.8 9.5 24 9.5z"/>
  <path fill="#4285F4" d="M46.1 24.5c0-1.6-.14-2.7-.36-3.8H24v7.2h12.7c-.6 3.3-2.9 6.1-6.4 7.6l7.7 6c4.5-4.2 7.1-10.4 7.1-17z"/>
  <path fill="#FBBC05" d="M10.8 28.9c-.5-1.4-.8-2.9-.8-4.4s.3-3 .8-4.4l-7.96-6.18C1 17.2 0 20.5 0 24.5s1 7.3 2.84 10.6l7.96-6.2z"/>
  <path fill="#34A853" d="M24 48c6.3 0 11.6-2.1 15.4-5.7l-7.7-6c-2.1 1.4-4.9 2.3-7.7 2.3-6.2 0-11.5-3.6-14.1-8.9l-7.96 6.2C6.7 42.6 14.7 48 24 48z"/>
</svg>
